<svg aria-hidden="true" style="position: absolute; width: 0; height: 0; overflow: hidden;" version="1.1" xmlns="http://www.w3.org/2000/svg" xmlns:xlink="http://www.w3.org/1999/xlink">
<defs>
<symbol id="icon-taglinecpmpany" viewBox="0 0 32 32">
<path d="M16.143 15.537c-0.15-0.201-0.225-0.439-0.204-0.677v-0.984c0-0.3 0.068-0.528 0.204-0.684s0.371-0.235 0.701-0.235c0.313 0 0.534 0.068 0.667 0.201 0.143 0.17 0.211 0.378 0.194 0.586v0.232h-0.558v-0.232c0.003-0.078-0.003-0.153-0.017-0.232-0.008-0.055-0.037-0.101-0.078-0.132l-0-0c-0.050-0.035-0.113-0.055-0.18-0.055-0.007 0-0.015 0-0.022 0.001l0.001-0c-0.078-0.003-0.153 0.014-0.214 0.054-0.048 0.041-0.082 0.095-0.092 0.15-0.017 0.082-0.024 0.163-0.024 0.245v1.191c-0.007 0.112 0.017 0.228 0.072 0.334 0.031 0.034 0.068 0.061 0.112 0.082 0.044 0.017 0.095 0.024 0.146 0.017 0.072 0.007 0.14-0.014 0.197-0.054 0.043-0.035 0.073-0.085 0.082-0.142l0-0.001c0.014-0.078 0.020-0.16 0.017-0.238v-0.242h0.558v0.221c0.017 0.218-0.051 0.432-0.191 0.616-0.129 0.146-0.347 0.218-0.671 0.218-0.32 0-0.565-0.078-0.701-0.238zM18.468 15.547c-0.14-0.153-0.211-0.378-0.211-0.671v-1.031c0-0.293 0.072-0.514 0.211-0.664 0.143-0.15 0.378-0.225 0.708-0.225s0.565 0.075 0.705 0.225c0.14 0.15 0.214 0.371 0.214 0.664v1.031c0 0.289-0.075 0.514-0.218 0.667s-0.374 0.232-0.701 0.232c-0.323 0-0.565-0.078-0.708-0.228zM19.438 15.299c0.048-0.095 0.072-0.201 0.065-0.306v-1.263c0.007-0.102-0.014-0.208-0.065-0.3-0.029-0.038-0.069-0.066-0.114-0.081l-0.002-0.001c-0.034-0.014-0.073-0.022-0.114-0.022-0.012 0-0.023 0.001-0.034 0.002l0.001-0c-0.051-0.003-0.102 0-0.146 0.020-0.048 0.017-0.088 0.044-0.116 0.082-0.051 0.092-0.075 0.194-0.068 0.3v1.27c-0.007 0.106 0.017 0.211 0.068 0.306 0.034 0.031 0.072 0.058 0.119 0.075 0.044 0.017 0.092 0.027 0.143 0.027 0.048 0 0.099-0.010 0.143-0.027s0.085-0.044 0.119-0.075v-0.007zM20.766 12.987h0.603l0.449 1.906 0.463-1.906h0.586l0.058 2.751h-0.432l-0.044-1.91-0.446 1.91h-0.347l-0.463-1.917-0.044 1.917h-0.436l0.054-2.751zM23.602 12.987h0.936c0.538 0 0.81 0.262 0.81 0.783 0 0.497-0.286 0.746-0.854 0.746h-0.32v1.222h-0.575l0.003-2.751zM24.402 14.162c0.054 0.007 0.112 0.003 0.17-0.014 0.054-0.014 0.106-0.037 0.146-0.072 0.068-0.092 0.095-0.201 0.082-0.31 0.003-0.085-0.003-0.17-0.027-0.252-0.008-0.029-0.022-0.054-0.041-0.075l0 0c-0.021-0.022-0.046-0.040-0.073-0.054l-0.002-0.001c-0.078-0.034-0.167-0.048-0.255-0.044h-0.225v0.82h0.225zM26.179 12.987h0.623l0.637 2.751h-0.538l-0.126-0.633h-0.555l-0.129 0.633h-0.548l0.637-2.751zM26.71 14.785l-0.214-1.154-0.218 1.154h0.432zM27.952 12.987h0.405l0.776 1.569v-1.569h0.48v2.751h-0.385l-0.78-1.637v1.637h-0.497v-2.751zM30.737 14.69l-0.643-1.699h0.541l0.395 1.093 0.368-1.093h0.531l-0.637 1.699v1.049h-0.555v-1.049zM17.035 16.94v0.143h-0.47v1.117h-0.197v-1.117h-0.477v-0.143h1.144zM18.516 18.199h-0.153c-0.017 0.003-0.031-0.003-0.044-0.010-0.011-0.007-0.020-0.018-0.024-0.030l-0-0-0.136-0.3h-0.654l-0.14 0.3c-0.003 0.014-0.010 0.027-0.020 0.034-0.010 0.010-0.027 0.014-0.041 0.014h-0.153l0.579-1.26h0.201l0.586 1.253zM17.556 17.733h0.548l-0.232-0.514c-0.017-0.037-0.031-0.078-0.044-0.119-0.007 0.024-0.014 0.048-0.020 0.068l-0.020 0.051-0.232 0.514zM19.513 18.077c0.034 0.003 0.072 0.003 0.109 0 0.031-0.003 0.061-0.007 0.092-0.014 0.027-0.007 0.054-0.014 0.082-0.024s0.051-0.020 0.078-0.031v-0.283h-0.232c-0.007 0-0.010-0.003-0.017-0.003-0.007-0.003-0.010-0.003-0.014-0.007l-0.010-0.010c0-0.007-0.003-0.010-0.003-0.014v-0.099h0.449v0.483c-0.037 0.024-0.075 0.044-0.116 0.061s-0.082 0.031-0.126 0.044c-0.048 0.010-0.099 0.020-0.146 0.024-0.054 0.007-0.112 0.010-0.167 0.010-0.102 0-0.201-0.017-0.293-0.048-0.088-0.031-0.167-0.075-0.232-0.133s-0.116-0.126-0.15-0.201c-0.037-0.082-0.054-0.17-0.054-0.259 0-0.092 0.017-0.18 0.054-0.266 0.034-0.075 0.082-0.143 0.15-0.201 0.065-0.054 0.143-0.099 0.232-0.129 0.099-0.031 0.204-0.048 0.31-0.048 0.051 0 0.106 0.003 0.16 0.010 0.048 0.007 0.092 0.020 0.136 0.034 0.041 0.014 0.082 0.031 0.116 0.051 0.037 0.017 0.072 0.041 0.102 0.065l-0.058 0.078c-0.004 0.007-0.010 0.013-0.017 0.017l-0 0c-0.007 0.003-0.017 0.007-0.027 0.007-0.014 0-0.024-0.003-0.034-0.010-0.022-0.009-0.041-0.019-0.059-0.031l0.001 0.001c-0.024-0.014-0.051-0.024-0.078-0.034-0.034-0.010-0.068-0.020-0.106-0.027-0.048-0.007-0.099-0.010-0.146-0.010-0.078-0.003-0.153 0.010-0.225 0.034-0.065 0.020-0.123 0.054-0.17 0.099-0.048 0.048-0.082 0.099-0.106 0.157-0.051 0.136-0.051 0.286 0 0.422 0.024 0.058 0.065 0.112 0.116 0.157 0.048 0.044 0.106 0.078 0.167 0.102 0.075 0.020 0.153 0.031 0.232 0.024zM21.355 18.056h0.633v0.143h-0.827v-1.26h0.197l-0.003 1.117zM22.645 18.199h-0.201v-1.26h0.201v1.26zM23.38 16.947c0.010 0.003 0.020 0.014 0.027 0.024l0.848 0.95c-0.002-0.007-0.003-0.014-0.003-0.022s0.001-0.015 0.003-0.023l-0 0.001v-0.94h0.17v1.263h-0.099c-0.014 0.003-0.027 0-0.041-0.007-0.014-0.003-0.024-0.014-0.034-0.024l-0.844-0.95v0.98h-0.163v-1.26h0.102c0.010 0 0.024 0.003 0.034 0.007zM25.883 16.94v0.14h-0.701v0.415h0.569v0.133h-0.569v0.432h0.701v0.14h-0.906v-1.26h0.906zM5.161 9.151l8.78 2.155v7.544l-8.78-2.155v-7.544zM4.596 8.511v8.552l9.906 2.431v-8.555l-9.906-2.427z"></path>
<path d="M9.906 23.462l-9.906-2.431v-8.552l9.906 2.427v8.555z"></path>
<path d="M4.759 9.056l8.667 2.124-3.683 3.183-8.671-2.124 3.687-3.183zM4.596 8.511l-4.596 3.969 9.906 2.427 4.596-3.969-9.906-2.427zM10.465 22.982l4.037-3.489-4.037-0.991v4.48z"></path>
</symbol>
<symbol id="icon-brand" viewBox="0 0 32 32">
<path d="M2.413 23.852c0.127 0.142 0.193 0.32 0.188 0.498 0.005 0.117-0.015 0.234-0.066 0.345-0.051 0.107-0.127 0.203-0.224 0.279-0.239 0.168-0.538 0.249-0.838 0.234h-1.473v-3.149h1.443c0.284-0.015 0.569 0.056 0.797 0.213 0.096 0.071 0.168 0.157 0.218 0.259 0.051 0.107 0.071 0.213 0.066 0.325 0.005 0.178-0.051 0.345-0.168 0.483-0.112 0.127-0.269 0.213-0.442 0.244 0.198 0.036 0.371 0.132 0.498 0.269zM0.686 23.38h0.615c0.142 0.010 0.279-0.030 0.391-0.107 0.051-0.036 0.086-0.086 0.107-0.137 0.025-0.056 0.036-0.112 0.030-0.168 0-0.056-0.005-0.117-0.030-0.168-0.022-0.057-0.057-0.105-0.101-0.142l-0.001-0c-0.117-0.076-0.259-0.117-0.406-0.107h-0.604v0.828zM1.752 24.584c0.090-0.065 0.149-0.17 0.149-0.288 0-0.011-0.001-0.022-0.002-0.033l0 0.001c0.001-0.009 0.001-0.019 0.001-0.029 0-0.053-0.014-0.102-0.038-0.145l0.001 0.001c-0.026-0.059-0.064-0.108-0.111-0.147l-0.001-0.001c-0.122-0.081-0.269-0.122-0.422-0.112h-0.645v0.863h0.655c0.147 0.005 0.295-0.030 0.411-0.112zM5.369 25.209l-0.808-1.229h-0.3v1.229h-0.691v-3.149h1.305c0.33-0.020 0.66 0.076 0.914 0.269 0.183 0.173 0.295 0.396 0.31 0.635 0.020 0.239-0.056 0.472-0.213 0.665-0.163 0.173-0.381 0.284-0.625 0.32l0.858 1.26h-0.752zM4.262 23.548h0.564c0.396 0 0.589-0.157 0.589-0.477 0-0.007 0.001-0.016 0.001-0.024 0-0.129-0.055-0.245-0.143-0.326l-0-0c-0.127-0.096-0.284-0.142-0.447-0.127h-0.569l0.005 0.955zM9.148 24.574h-1.382l-0.244 0.635h-0.721l1.265-3.114h0.782l1.26 3.114h-0.726l-0.234-0.635zM8.96 24.096l-0.503-1.326-0.503 1.326h1.006zM13.877 25.209h-0.686l-1.539-2.143v2.143h-0.686v-3.149h0.686l1.539 2.154v-2.154h0.686v3.149zM17.793 24.452c-0.142 0.239-0.361 0.432-0.62 0.559-0.3 0.137-0.635 0.203-0.965 0.198h-1.224v-3.149h1.224c0.33-0.005 0.665 0.061 0.965 0.193 0.259 0.122 0.477 0.315 0.62 0.549 0.134 0.238 0.213 0.522 0.213 0.825s-0.079 0.587-0.218 0.834l0.004-0.009zM17.006 24.381c0.198-0.213 0.305-0.477 0.305-0.752s-0.107-0.544-0.305-0.752c-0.234-0.188-0.544-0.284-0.858-0.269h-0.477v2.037h0.477c0.315 0.020 0.625-0.076 0.858-0.264zM9.575 4.571s8.858 3.058 8.67 7.492v7.492s-8.853-3.063-8.665-7.492l-0.005-7.492zM26.138 17.803c1.671-1.056 3.606-1.707 5.623-1.9v-2.347c-2.326 0.823-4.297 2.311-5.623 4.246z"></path>
<path d="M25.133 18.509c1.366-2.524 3.744-4.475 6.634-5.445v-6.761s-12.617 4.363-12.348 10.672v10.672s0.559-0.198 1.443-0.564c0-0.34 0-0.681 0.041-1.031 0.264-2.926 1.783-5.643 4.231-7.543z"></path>
<path d="M23.929 22.471c0.071-0.742 0.218-1.473 0.442-2.184-1.524 1.646-2.443 3.683-2.636 5.831-0.020 0.203-0.030 0.406-0.036 0.615 0.721-0.315 1.554-0.711 2.428-1.173-0.224-1.016-0.29-2.052-0.198-3.088zM24.432 22.512c-0.081 0.935-0.030 1.874 0.157 2.794 3.444-1.884 7.319-4.805 7.172-8.33v-0.305c-2.463 0.249-4.77 1.234-6.557 2.804-0.422 0.97-0.681 1.996-0.772 3.037z"></path>
</symbol>
<symbol id="icon-fosterpeters" viewBox="0 0 32 32">
<path d="M5.006 12.916c0.914 0 1.654 0.659 1.654 1.471s-0.739 1.471-1.654 1.471-1.654-0.659-1.654-1.471 0.739-1.471 1.654-1.471z"></path>
<path d="M17.217 12.443c-0.004-1.128-0.507-2.206-1.406-3.006-0.895-0.796-2.111-1.246-3.383-1.246-1.269 0-2.484 0.45-3.383 1.246-0.895 0.8-1.402 1.878-1.406 3.006v6.222s9.578-0.949 9.578-6.218v-0.004zM0 20.704c0 0.785 0.351 1.539 0.975 2.092 0.625 0.556 1.471 0.869 2.355 0.872 0.884-0.004 1.73-0.316 2.351-0.869 0.625-0.556 0.979-1.307 0.979-2.092v-4.328s-6.66 0.659-6.66 4.324zM3.33 21.481c-0.171 0-0.343-0.046-0.484-0.13-0.145-0.088-0.255-0.206-0.324-0.351-0.041-0.088-0.065-0.19-0.065-0.298 0-0.052 0.006-0.103 0.016-0.152l-0.001 0.005c0.034-0.152 0.118-0.29 0.24-0.396 0.122-0.11 0.278-0.183 0.446-0.213 0.171-0.030 0.347-0.015 0.507 0.042 0.156 0.061 0.293 0.16 0.389 0.286 0.095 0.13 0.149 0.278 0.149 0.431 0 0.103-0.023 0.206-0.065 0.301-0.098 0.195-0.264 0.344-0.467 0.417l-0.006 0.002c-0.107 0.038-0.221 0.061-0.335 0.061v-0.004z"></path>
<path d="M11.586 21.363q0.088-0.179 0.088-0.419v-0.072q0-0.24-0.088-0.423-0.065-0.137-0.171-0.229-0.034-0.027-0.072-0.053-0.034-0.019-0.069-0.034-0.133-0.061-0.293-0.061t-0.293 0.061q-0.034 0.015-0.069 0.034-0.038 0.027-0.072 0.053-0.107 0.091-0.171 0.229-0.088 0.183-0.088 0.423v0.080q0.004 0.232 0.091 0.415 0.061 0.13 0.164 0.217 0.038 0.034 0.080 0.061 0.034 0.019 0.072 0.038 0.133 0.057 0.29 0.057 0.164 0 0.297-0.065 0.034-0.015 0.065-0.034 0.042-0.027 0.084-0.061 0.095-0.088 0.156-0.217zM12.729 21.187q0.030 0.042 0.030 0.103 0 0.050-0.023 0.088-0.015 0.027-0.046 0.050-0.065 0.050-0.187 0.050-0.187 0-0.267-0.095-0.053-0.065-0.053-0.175h-0.335q0 0.118 0.046 0.213 0.015 0.034 0.034 0.065l0.004 0.004q0.080 0.114 0.232 0.183t0.339 0.069q0.271 0 0.431-0.118 0.069-0.053 0.107-0.122 0.053-0.091 0.053-0.21 0-0.107-0.042-0.194-0.030-0.069-0.088-0.122-0.133-0.13-0.419-0.213-0.152-0.050-0.232-0.103-0.057-0.038-0.072-0.088-0.008-0.023-0.008-0.046 0-0.042 0.015-0.072 0.019-0.038 0.053-0.065 0.069-0.050 0.191-0.050 0.126 0 0.198 0.061 0.015 0.015 0.030 0.034 0.038 0.057 0.038 0.141h0.335q0-0.103-0.034-0.187-0.019-0.038-0.042-0.076-0.015-0.023-0.034-0.046-0.069-0.084-0.175-0.133-0.137-0.061-0.312-0.061-0.171 0-0.312 0.057-0.137 0.057-0.213 0.16-0.030 0.042-0.046 0.091-0.027 0.069-0.027 0.145t0.023 0.145q0.061 0.152 0.255 0.259 0.099 0.053 0.274 0.11t0.24 0.107q0.023 0.019 0.038 0.042zM25.805 21.187q0.030 0.042 0.030 0.103 0 0.050-0.023 0.088-0.015 0.027-0.046 0.050-0.069 0.050-0.187 0.050-0.187 0-0.267-0.095-0.053-0.065-0.053-0.175h-0.335q0 0.118 0.042 0.213 0.015 0.034 0.038 0.065l0.004 0.004q0.080 0.114 0.229 0.183 0.156 0.069 0.343 0.069 0.27 0 0.431-0.118 0.069-0.053 0.107-0.122 0.053-0.091 0.053-0.21 0-0.107-0.042-0.194-0.034-0.069-0.088-0.122-0.133-0.13-0.419-0.213-0.152-0.050-0.232-0.103-0.057-0.038-0.076-0.088-0.004-0.023-0.004-0.046 0-0.042 0.015-0.072 0.015-0.038 0.053-0.065 0.065-0.050 0.191-0.050t0.194 0.061q0.019 0.015 0.034 0.034 0.038 0.057 0.038 0.141h0.335q0-0.103-0.038-0.187-0.015-0.038-0.038-0.076-0.015-0.023-0.034-0.046-0.069-0.084-0.175-0.133-0.137-0.061-0.312-0.061-0.171 0-0.312 0.057-0.137 0.057-0.213 0.16-0.030 0.042-0.046 0.091-0.027 0.069-0.027 0.145t0.023 0.145q0.061 0.152 0.251 0.259 0.103 0.053 0.278 0.11 0.171 0.057 0.24 0.107 0.023 0.019 0.038 0.042zM9.422 21.054h0.64v-0.27h-0.64v-0.419h0.72v-0.27h-1.055v1.623h0.335v-0.663zM14.048 20.364h0.499v-0.27h-1.326v0.27h0.492v1.353h0.335v-1.353zM15.072 21.012h0.64v-0.259h-0.64v-0.389h0.751v-0.27h-1.086v1.623h1.090v-0.267h-0.754v-0.438zM16.356 21.123h0.267l0.305 0.594h0.358v-0.015l-0.351-0.663q0.145-0.065 0.217-0.179 0.072-0.11 0.072-0.274t-0.076-0.278q-0.030-0.046-0.080-0.088-0.156-0.126-0.442-0.126h-0.606v1.623h0.335v-0.594zM18.383 21.717v-0.572h0.293q0.29 0 0.453-0.137 0.057-0.050 0.095-0.11 0.069-0.11 0.069-0.267 0-0.126-0.046-0.229-0.011-0.027-0.027-0.053-0.023-0.034-0.053-0.069-0.065-0.072-0.164-0.122-0.137-0.065-0.32-0.065h-0.636v1.623h0.335zM19.858 21.012h0.644v-0.259h-0.644v-0.389h0.754v-0.27h-1.090v1.623h1.090v-0.267h-0.754v-0.438zM21.557 20.364h0.499v-0.27h-1.326v0.27h0.491v1.353h0.335v-1.353zM22.582 21.012h0.644v-0.259h-0.644v-0.389h0.751v-0.27h-1.086v1.623h1.090v-0.267h-0.754v-0.438zM23.866 21.123h0.267l0.305 0.594h0.362v-0.015l-0.354-0.663q0.149-0.065 0.221-0.179 0.072-0.11 0.072-0.274t-0.076-0.278q-0.034-0.046-0.080-0.088-0.156-0.126-0.446-0.126h-0.602v1.623h0.331v-0.594zM11.243 20.479q0.091 0.133 0.091 0.389v0.080q-0.004 0.255-0.091 0.385-0.042 0.061-0.095 0.091-0.072 0.042-0.164 0.042-0.095 0-0.164-0.042-0.061-0.034-0.099-0.095-0.091-0.137-0.091-0.385v-0.080q0-0.255 0.091-0.385 0.038-0.057 0.095-0.091 0.069-0.042 0.164-0.042t0.164 0.042q0.057 0.034 0.099 0.091zM16.627 20.852h-0.27v-0.488h0.27q0.133 0 0.198 0.065 0.011 0.011 0.019 0.023 0.046 0.061 0.046 0.16 0 0.084-0.038 0.141-0.015 0.019-0.030 0.034l-0.004 0.004q-0.069 0.061-0.191 0.061zM18.684 20.875h-0.301v-0.511h0.309q0.099 0 0.164 0.050 0.015 0.011 0.030 0.027t0.027 0.034q0.042 0.065 0.042 0.156 0 0.095-0.042 0.152-0.011 0.015-0.027 0.027-0.069 0.065-0.202 0.065zM24.136 20.852h-0.27v-0.488h0.27q0.133 0 0.202 0.065l0.015 0.023q0.050 0.061 0.050 0.16 0 0.084-0.042 0.141-0.011 0.019-0.027 0.034-0.004 0-0.004 0.004-0.069 0.061-0.194 0.061z"></path>
</symbol>
<symbol id="icon-company" viewBox="0 0 32 32">
<path d="M5.001 30.81c0.015 0 0.022 0 0.037 0.007 0.007 0 0.015 0.007 0.030 0.015l0.156 0.156c-0.127 0.127-0.275 0.223-0.454 0.29-0.201 0.074-0.424 0.112-0.647 0.112-0.208 0-0.417-0.030-0.61-0.104-0.171-0.060-0.327-0.156-0.454-0.275-0.134-0.127-0.231-0.275-0.298-0.432-0.074-0.179-0.104-0.365-0.104-0.551s0.037-0.38 0.112-0.551c0.067-0.164 0.179-0.313 0.313-0.432 0.141-0.127 0.305-0.216 0.491-0.283 0.193-0.067 0.409-0.104 0.625-0.097 0.019-0.001 0.040-0.001 0.062-0.001 0.364 0 0.697 0.127 0.96 0.338l-0.003-0.002-0.141 0.171-0.030 0.030c-0.015 0.007-0.037 0.007-0.060 0.007-0.015 0-0.037-0.007-0.052-0.015l-0.074-0.045-0.104-0.060c-0.045-0.015-0.089-0.037-0.134-0.052-0.060-0.022-0.127-0.030-0.186-0.045-0.082-0.015-0.164-0.015-0.238-0.015-0.156-0.007-0.313 0.022-0.454 0.074-0.134 0.045-0.253 0.112-0.35 0.208-0.193 0.183-0.313 0.441-0.313 0.728 0 0.014 0 0.027 0.001 0.041l-0-0.002c-0.007 0.149 0.022 0.298 0.082 0.447 0.045 0.119 0.127 0.231 0.223 0.327 0.097 0.089 0.208 0.156 0.335 0.201 0.134 0.052 0.275 0.074 0.424 0.074 0.082 0 0.164-0.007 0.246-0.015 0.134-0.015 0.26-0.052 0.372-0.119 0.060-0.030 0.112-0.067 0.164-0.112 0.022-0.015 0.045-0.022 0.074-0.022zM9.689 30.028c0 0.186-0.037 0.372-0.112 0.551-0.067 0.156-0.171 0.298-0.305 0.424-0.134 0.119-0.298 0.216-0.476 0.275-0.402 0.134-0.841 0.134-1.235 0-0.179-0.060-0.342-0.156-0.476-0.275-0.134-0.127-0.238-0.275-0.313-0.432-0.141-0.357-0.141-0.744 0-1.101 0.074-0.156 0.179-0.305 0.313-0.432 0.134-0.119 0.298-0.208 0.476-0.268 0.394-0.134 0.834-0.134 1.235 0 0.179 0.067 0.342 0.156 0.476 0.283 0.134 0.119 0.238 0.268 0.305 0.424 0.074 0.171 0.112 0.365 0.112 0.551zM9.265 30.028c0-0.149-0.022-0.298-0.082-0.439-0.045-0.127-0.119-0.238-0.216-0.335-0.096-0.088-0.21-0.158-0.335-0.206l-0.007-0.002c-0.29-0.097-0.61-0.097-0.893 0-0.134 0.052-0.253 0.119-0.35 0.208-0.097 0.097-0.171 0.208-0.216 0.335-0.104 0.283-0.104 0.595 0 0.878 0.045 0.119 0.119 0.238 0.216 0.327s0.216 0.164 0.35 0.208c0.283 0.097 0.603 0.097 0.893 0 0.134-0.045 0.246-0.119 0.342-0.208 0.097-0.097 0.171-0.208 0.216-0.327 0.060-0.141 0.082-0.29 0.082-0.439zM12.889 30.49l0.037 0.097c0.022-0.030 0.030-0.067 0.052-0.097 0.015-0.030 0.030-0.067 0.052-0.097l1.034-1.637c0.022-0.030 0.037-0.045 0.060-0.052 0.030-0.007 0.060-0.007 0.082-0.007h0.313v2.664h-0.365v-2.136l-1.042 1.66c-0.015 0.030-0.037 0.045-0.067 0.060-0.022 0.015-0.052 0.022-0.089 0.022h-0.052c-0.037 0-0.067-0.007-0.089-0.022-0.030-0.015-0.052-0.030-0.067-0.060l-1.072-1.667v2.136h-0.35v-2.657h0.305c0.030 0 0.060 0 0.089 0.007 0.022 0.007 0.045 0.030 0.052 0.052l1.064 1.637c0.015 0.030 0.037 0.067 0.052 0.097zM16.789 30.356v0.997h-0.409v-2.657h0.908c0.171-0.007 0.342 0.015 0.506 0.060 0.134 0.030 0.253 0.089 0.357 0.164 0.165 0.138 0.269 0.343 0.269 0.573 0 0.011-0 0.021-0.001 0.032l0-0.002c0.007 0.112-0.022 0.231-0.074 0.335-0.049 0.109-0.123 0.199-0.214 0.267l-0.002 0.001c-0.104 0.082-0.231 0.141-0.357 0.179-0.164 0.045-0.327 0.067-0.491 0.060l-0.491-0.007zM16.789 30.073h0.491c0.104 0 0.216-0.015 0.313-0.045 0.082-0.022 0.164-0.060 0.231-0.112 0.056-0.048 0.102-0.108 0.133-0.175l0.001-0.003c0.037-0.067 0.052-0.141 0.052-0.223 0-0.074-0.007-0.149-0.045-0.216-0.032-0.072-0.081-0.132-0.14-0.178l-0.001-0.001c-0.142-0.094-0.316-0.15-0.504-0.15-0.014 0-0.028 0-0.041 0.001l0.002-0h-0.491v1.101zM22.244 31.36h-0.32c-0.037 0-0.067-0.007-0.089-0.030-0.023-0.014-0.041-0.035-0.052-0.059l-0-0.001-0.275-0.64h-1.392l-0.283 0.64c-0.007 0.022-0.030 0.045-0.052 0.060-0.022 0.022-0.060 0.030-0.089 0.030h-0.32l1.213-2.664h0.424l1.235 2.664zM20.234 30.371h1.146l-0.484-1.087c-0.032-0.068-0.063-0.15-0.087-0.234l-0.003-0.011-0.052 0.134c-0.015 0.045-0.030 0.082-0.045 0.112l-0.476 1.087zM23.993 28.704c0.030 0.015 0.045 0.030 0.067 0.052l1.771 2.009v-2.069h0.365v2.664h-0.201c-0.030 0-0.060-0.007-0.089-0.015-0.024-0.014-0.043-0.031-0.059-0.052l-0-0-1.779-2.009c0.007 0.037 0.007 0.067 0 0.097v1.98h-0.357v-2.664h0.216c0.022 0 0.045 0 0.067 0.007zM29.187 30.296v1.064h-0.409v-1.064l-1.124-1.6h0.365c0.037 0 0.067 0.007 0.089 0.022s0.037 0.037 0.052 0.060l0.707 1.034c0.030 0.045 0.052 0.082 0.074 0.127l0.045 0.112 0.052-0.119c0.022-0.037 0.045-0.082 0.074-0.119l0.692-1.042c0.015-0.022 0.030-0.037 0.052-0.060 0.022-0.015 0.052-0.022 0.089-0.022h0.365l-1.124 1.607zM12.688 24.224c0.171 0.022 0.35 0.037 0.536 0.052 2.739-1.064 5.053-2.806 6.653-5.008 1.607-2.203 2.433-4.763 2.366-7.367l-3.014-2.627c0.61 2.776 0.327 5.641-0.834 8.283-1.154 2.642-3.133 4.949-5.708 6.668z"></path>
<path d="M11.609 24.105l0.082 0.015c2.754-1.719 4.86-4.108 6.028-6.869 1.176-2.761 1.369-5.767 0.558-8.625l-4.294-3.736c1.734 3.074 2.433 6.504 2.017 9.905s-1.942 6.631-4.391 9.31zM26.18 14.973c-0.729 2.865-2.5 5.447-5.053 7.36-0.744 0.566-1.548 1.064-2.404 1.503 2.076-0.536 3.989-1.474 5.589-2.746 1.593-1.273 2.828-2.85 3.617-4.607l-1.749-1.511z"></path>
<path d="M25.496 14.557l-2.478-2.158c-0.045 2.456-0.848 4.86-2.329 6.958-1.481 2.091-3.572 3.81-6.073 4.964h0.015c0.551 0 1.109-0.030 1.66-0.089 2.337-0.826 4.398-2.143 6.006-3.833s2.709-3.699 3.2-5.842zM11.966 3.319l-2.962-2.575c-2.642 0.886-4.919 2.448-6.527 4.48s-2.471 4.435-2.478 6.899c0.007 2.724 1.064 5.366 2.992 7.509 1.935 2.151 4.636 3.669 7.68 4.331 2.716-2.873 4.301-6.43 4.54-10.143 0.231-3.706-0.908-7.39-3.245-10.5zM32.342 14.155c-0.015-3.23-1.496-6.326-4.13-8.61-2.627-2.285-6.192-3.572-9.913-3.587-1.719 0-3.423 0.275-5.023 0.819l18.128 15.747c0.618-1.392 0.938-2.873 0.938-4.368z"></path>
</symbol>
<symbol id="icon-tagline" viewBox="0 0 32 32">
<path d="M14.139 1.807h0.084c0.156 0 0.324 0.015 0.49 0.030 0.807 0.058 1.552 0.175 2.275 0.348l-0.095-0.019v-1.762c-0.652-0.172-1.42-0.3-2.207-0.357l-0.042-0.002c-0.254-0.020-0.57-0.035-0.889-0.043l-0.021-0h-0.263c-1.523 0.006-3.041 0.201-4.515 0.582-1.68 0.419-3.294 1.075-4.791 1.949v17.478c1.313-0.729 2.833-1.338 4.432-1.749l0.135-0.029c1.123-0.3 2.434-0.51 3.78-0.587l0.053-0.002h0.052c0.217-0.011 0.433-0.017 0.656-0.018v-1.791c-1.78 0.024-3.494 0.264-5.13 0.695l0.147-0.033c-0.603 0.157-1.185 0.326-1.731 0.513l-0.623 0.212v-13.629l0.266-0.128c1.891-0.918 4.097-1.513 6.426-1.649l0.047-0.002c0.008-0.001 0.018-0.001 0.028-0.001s0.019 0 0.029 0.001l-0.001-0c0.248-0.012 0.497-0.018 0.742-0.018h0.28c0.129 0.003 0.259 0.006 0.388 0.014zM17.325 3.608c0.356 0.028 0.77 0.044 1.188 0.044 0.006 0 0.012 0 0.018 0h-0.001c1.69-0.007 3.325-0.228 4.883-0.64l-0.135 0.030c1.734-0.442 3.254-1.052 4.666-1.832l-0.101 0.051v17.167c-1.38 0.819-2.975 1.487-4.665 1.921l-0.127 0.028c-1.353 0.363-2.909 0.574-4.512 0.581h-0.004c-0.032 0-0.070 0-0.108 0-1.178 0-2.321-0.148-3.412-0.425l0.095 0.021v-17.278c0.265 0.061 0.537 0.117 0.814 0.164 0.455 0.077 0.934 0.133 1.402 0.167zM26.062 3.741l-0.623 0.209c-0.376 0.138-0.954 0.315-1.539 0.474l-0.192 0.044c-1.551 0.415-3.333 0.657-5.17 0.664h-0.004c-0.406 0-0.78-0.011-1.141-0.034l-0.497-0.033v14.020l0.427 0.037c0.363 0.033 0.785 0.052 1.212 0.052 0.001 0 0.002 0 0.003 0h-0c1.451-0.006 2.854-0.198 4.19-0.554l-0.116 0.026c1.221-0.31 2.281-0.702 3.286-1.189l-0.102 0.044 0.267-0.128v-13.633z"></path>
<path d="M5.37 25.981c-0.086-0.092-0.197-0.166-0.314-0.215-0.123-0.049-0.246-0.074-0.375-0.068-0.142 0-0.277 0.025-0.4 0.074-0.117 0.049-0.228 0.117-0.314 0.209-0.085 0.088-0.153 0.192-0.201 0.307l-0.002 0.007c-0.049 0.123-0.068 0.252-0.068 0.382v2.339c-0.006 0.166 0.025 0.326 0.092 0.48 0.055 0.117 0.135 0.222 0.234 0.308 0.092 0.080 0.203 0.135 0.32 0.166 0.111 0.037 0.228 0.049 0.345 0.049 0.135 0.006 0.259-0.025 0.382-0.080 0.117-0.049 0.222-0.123 0.308-0.215s0.16-0.197 0.203-0.314c0.049-0.117 0.080-0.246 0.080-0.369v-0.265h-0.616v0.209c0.006 0.074-0.006 0.142-0.031 0.209-0.025 0.050-0.056 0.092-0.092 0.129l0-0c-0.036 0.031-0.079 0.054-0.127 0.067l-0.002 0.001c-0.037 0.012-0.080 0.025-0.123 0.025-0.008 0.001-0.018 0.001-0.028 0.001-0.048 0-0.093-0.009-0.134-0.027l0.002 0.001c-0.054-0.021-0.098-0.058-0.129-0.104l-0.001-0.001c-0.051-0.082-0.081-0.182-0.081-0.289 0-0.009 0-0.018 0.001-0.027l-0 0.001v-2.173c-0.006-0.123 0.018-0.24 0.074-0.351 0.061-0.087 0.16-0.143 0.273-0.143 0.010 0 0.020 0 0.030 0.001l-0.001-0c0.049 0 0.105 0.012 0.148 0.031 0.049 0.025 0.092 0.062 0.123 0.105 0.068 0.086 0.105 0.197 0.098 0.308v0.203h0.603v-0.234c0.006-0.142-0.018-0.283-0.074-0.412-0.043-0.123-0.111-0.234-0.203-0.326zM8.995 25.95c-0.191-0.16-0.437-0.252-0.689-0.252-0.129 0-0.252 0.018-0.369 0.062s-0.228 0.111-0.32 0.191c-0.098 0.092-0.185 0.203-0.234 0.332-0.062 0.142-0.092 0.295-0.092 0.449v2.241c-0.006 0.16 0.025 0.314 0.092 0.456 0.055 0.123 0.135 0.228 0.234 0.314 0.092 0.086 0.203 0.154 0.32 0.197s0.24 0.068 0.369 0.068c0.265-0.002 0.507-0.102 0.69-0.266l-0.001 0.001c0.098-0.086 0.178-0.191 0.234-0.314 0.062-0.142 0.092-0.295 0.086-0.456v-2.241c0-0.011 0.001-0.023 0.001-0.036 0-0.293-0.123-0.558-0.32-0.745l-0-0zM8.712 28.973c0.006 0.062 0 0.117-0.025 0.178-0.018 0.055-0.055 0.105-0.098 0.148-0.080 0.068-0.178 0.105-0.283 0.105s-0.209-0.037-0.289-0.105c-0.041-0.041-0.074-0.090-0.097-0.145l-0.001-0.003c-0.016-0.044-0.026-0.096-0.026-0.149 0-0.010 0-0.021 0.001-0.031l-0 0.001v-2.241c-0.006-0.062 0.006-0.117 0.025-0.178 0.025-0.055 0.055-0.105 0.098-0.148 0.080-0.068 0.185-0.105 0.289-0.105s0.203 0.037 0.283 0.105c0.043 0.043 0.080 0.092 0.098 0.148 0.025 0.062 0.031 0.117 0.025 0.178v2.241zM13.759 29.97v-4.235h-0.585l-0.769 2.241h-0.012l-0.776-2.241h-0.585v4.235h0.609v-2.579h0.006l0.597 1.828h0.302l0.597-1.828h0.012v2.579h0.603zM17.2 26.030c-0.092-0.105-0.209-0.185-0.339-0.234-0.142-0.043-0.289-0.068-0.443-0.062h-0.899v4.235h0.603v-1.656h0.314c0.185 0.012 0.375-0.031 0.542-0.111 0.142-0.080 0.252-0.191 0.332-0.326 0.074-0.111 0.117-0.24 0.142-0.369 0.025-0.16 0.031-0.32 0.031-0.48 0.006-0.203-0.012-0.412-0.062-0.609-0.037-0.148-0.117-0.277-0.222-0.388zM16.892 27.323c-0.006 0.074-0.025 0.154-0.055 0.222-0.037 0.062-0.092 0.117-0.16 0.148-0.086 0.037-0.185 0.055-0.283 0.055h-0.277v-1.446h0.314c0.092 0 0.185 0.018 0.271 0.055 0.062 0.037 0.111 0.092 0.142 0.154 0.031 0.080 0.049 0.16 0.055 0.24v0.283c0 0.098 0.006 0.197 0 0.289h-0.006zM20.062 25.735h-0.492l-0.936 4.235h0.603l0.178-0.911h0.825l0.178 0.911h0.603l-0.96-4.235zM19.508 28.486l0.295-1.539h0.012l0.295 1.539h-0.603zM23.965 28.289h-0.006l-0.917-2.554h-0.579v4.235h0.603v-2.548h0.012l0.923 2.548h0.572v-4.235h-0.609v2.554zM27.658 25.735l-0.486 1.68h-0.012l-0.486-1.68h-0.64l0.831 2.444v1.791h0.603v-1.791l0.831-2.444h-0.64zM3.69 31.17h0.289v0.819h0.197v-0.819h0.289v-0.166h-0.776v0.166zM6.133 31.004l-0.382 0.985h0.209l0.080-0.228h0.394l0.086 0.228h0.215l-0.394-0.985h-0.209zM6.102 31.595l0.135-0.363 0.135 0.363h-0.271zM8.552 31.625h0.228v0.123c-0.068 0.055-0.148 0.086-0.234 0.086-0.037 0-0.080-0.006-0.117-0.025-0.037-0.015-0.068-0.038-0.092-0.067l-0-0c-0.046-0.073-0.074-0.162-0.074-0.257 0-0 0-0.001 0-0.001v0c0-0.222 0.098-0.332 0.289-0.332 0.049 0 0.098 0.012 0.135 0.037 0.043 0.031 0.074 0.074 0.086 0.123l0.191-0.037c-0.037-0.197-0.178-0.289-0.412-0.289-0.005-0-0.011-0-0.018-0-0.126 0-0.24 0.047-0.328 0.124l0.001-0c-0.049 0.049-0.092 0.111-0.117 0.178-0.025 0.062-0.031 0.135-0.025 0.203-0.006 0.135 0.037 0.265 0.123 0.369 0.049 0.049 0.105 0.086 0.172 0.111 0.062 0.025 0.135 0.037 0.203 0.031 0.154 0.006 0.302-0.049 0.419-0.154v-0.388h-0.431v0.166zM11.027 31.004h-0.203v0.985h0.689v-0.166h-0.486v-0.819z"></path>
<path d="M12.916 31.004h0.197v0.985h-0.197v-0.985z"></path>
<path d="M15.157 31.662l-0.4-0.659h-0.197v0.985h0.185v-0.646l0.4 0.646h0.197v-0.985h-0.185v0.659zM17.003 31.552h0.492v-0.166h-0.492v-0.215h0.529v-0.166h-0.726v0.985h0.745v-0.166h-0.548v-0.271zM21.484 31.392h-0.388v-0.388h-0.197v0.985h0.197v-0.431h0.388v0.431h0.197v-0.985h-0.197v0.388zM23.343 31.552h0.486v-0.166h-0.486v-0.215h0.529v-0.166h-0.732v0.985h0.751v-0.166h-0.548v-0.271zM25.861 31.552c0.172-0.025 0.259-0.117 0.259-0.271 0.002-0.010 0.002-0.021 0.002-0.032 0-0.033-0.008-0.065-0.021-0.092l0.001 0.001c-0.018-0.040-0.046-0.073-0.079-0.098l-0.001-0c-0.073-0.036-0.159-0.057-0.25-0.057-0.014 0-0.027 0-0.041 0.001l0.002-0h-0.412v0.985h0.197v-0.412h0.037c0.043-0.006 0.086 0.006 0.123 0.018 0.031 0.018 0.055 0.043 0.068 0.074l0.215 0.314h0.24l-0.123-0.191c-0.049-0.098-0.129-0.178-0.215-0.24zM25.658 31.416h-0.142v-0.246h0.154c0.068-0.006 0.135 0 0.203 0.025 0.012 0.012 0.025 0.025 0.031 0.043s0.012 0.037 0.012 0.055c-0.006 0.025-0.006 0.043-0.018 0.055-0.006 0.018-0.018 0.031-0.037 0.043-0.062 0.025-0.135 0.031-0.203 0.025zM27.756 31.552h0.492v-0.166h-0.492v-0.215h0.529v-0.166h-0.726v0.985h0.751v-0.166h-0.554v-0.271z"></path>
</symbol>
<symbol id="icon-yago" viewBox="0 0 32 32">
<path d="M6.127 0l4.772 4.517-8.857-0.005v21.917h23.15v-8.38l4.766 4.512v-22.561h-23.831zM24.982 4.71v12.808l-13.529-12.808h13.529zM20.782 23.223h-15.077v-14.741h1.066v13.742h14.011v0.997zM12.847 30.607c-0.057 0.085-0.091 0.19-0.091 0.303 0 0.001 0 0.003 0 0.004v-0c0 0.204 0.072 0.37 0.214 0.497s0.336 0.19 0.575 0.19q0.269 0 0.482-0.109 0.071-0.037 0.136-0.086l0.136 0.161h0.468l-0.355-0.421q0.209-0.286 0.209-0.733h-0.351c0 0.163-0.034 0.311-0.101 0.443l-0.468-0.552 0.165-0.12c0.1-0.068 0.184-0.152 0.249-0.249l0.002-0.003c0.048-0.079 0.076-0.174 0.076-0.275 0-0.001 0-0.003 0-0.004v0q0-0.115-0.042-0.211t-0.127-0.173c-0.108-0.097-0.251-0.157-0.408-0.157-0.008 0-0.017 0-0.025 0l0.001-0c-0.195 0-0.35 0.056-0.465 0.166s-0.173 0.259-0.173 0.449c0 0.078 0.018 0.158 0.054 0.241 0.038 0.083 0.104 0.184 0.197 0.302-0.179 0.129-0.3 0.24-0.36 0.334zM17.446 31.384c0.166-0.145 0.261-0.347 0.286-0.605h-0.419c-0.022 0.172-0.075 0.296-0.158 0.37s-0.208 0.112-0.372 0.112c-0.18 0-0.318-0.069-0.412-0.206q-0.14-0.206-0.14-0.599v-0.214c0.003-0.259 0.052-0.453 0.15-0.587 0.099-0.134 0.24-0.201 0.422-0.201 0.157 0 0.276 0.039 0.357 0.116s0.133 0.202 0.153 0.376h0.419c-0.027-0.265-0.121-0.47-0.285-0.615s-0.378-0.218-0.645-0.218c-0.198 0-0.373 0.048-0.525 0.142-0.152 0.097-0.271 0.234-0.345 0.396l-0.002 0.006c-0.077 0.169-0.122 0.367-0.122 0.575 0 0.010 0 0.020 0 0.030l-0-0.002v0.226c0.003 0.223 0.045 0.418 0.125 0.587s0.193 0.298 0.339 0.39c0.148 0.091 0.318 0.136 0.511 0.136 0.276 0 0.497-0.072 0.663-0.216zM19.917 31.045c0.082-0.179 0.123-0.388 0.123-0.625v-0.134c0-0.007 0-0.016 0-0.024 0-0.216-0.047-0.421-0.131-0.605l0.004 0.009q-0.095-0.206-0.254-0.338-0.048-0.039-0.099-0.072c-0.152-0.095-0.327-0.143-0.524-0.143s-0.372 0.048-0.525 0.145q-0.041 0.025-0.078 0.055-0.172 0.136-0.276 0.359c-0.079 0.175-0.125 0.38-0.125 0.595 0 0.011 0 0.021 0 0.032l-0-0.002v0.136c0.001 0.232 0.043 0.436 0.126 0.613 0.084 0.178 0.203 0.315 0.356 0.411 0.154 0.095 0.329 0.143 0.525 0.143 0.199 0 0.374-0.048 0.526-0.143 0.153-0.097 0.27-0.234 0.352-0.413zM9.266 29.148l-0.557 1.147-0.557-1.147h-0.467l0.813 1.529v0.891h0.422v-0.891l0.811-1.529h-0.465zM9.966 31.568l0.196-0.564h0.938l0.197 0.564h0.439l-0.916-2.421h-0.378l-0.914 2.421h0.437zM13.507 30.070c-0.114-0.141-0.172-0.257-0.172-0.351 0-0.081 0.024-0.148 0.070-0.202 0.044-0.049 0.107-0.080 0.177-0.080 0.004 0 0.007 0 0.011 0l-0.001-0c0.003-0 0.006-0 0.009-0 0.067 0 0.127 0.026 0.173 0.068l-0-0c0.048 0.045 0.072 0.099 0.072 0.161 0 0.002 0 0.005 0 0.008 0 0.090-0.040 0.171-0.103 0.226l-0 0-0.052 0.042-0.185 0.126zM19.468 29.678c0.102 0.143 0.153 0.349 0.153 0.617v0.126c0 0.272-0.050 0.48-0.151 0.622-0.099 0.142-0.242 0.213-0.429 0.213-0.005 0-0.011 0-0.017 0-0.171 0-0.323-0.086-0.413-0.217l-0.001-0.002c-0.104-0.145-0.155-0.351-0.155-0.617v-0.14c0.002-0.26 0.054-0.462 0.156-0.603 0.091-0.13 0.24-0.215 0.41-0.215 0.006 0 0.012 0 0.018 0l-0.001-0c0.187 0 0.33 0.072 0.431 0.214zM10.63 29.661l0.351 1.004h-0.701l0.351-1.004zM13.94 31.143c-0.104 0.084-0.237 0.135-0.382 0.136h-0q-0.148 0-0.246-0.069-0.022-0.016-0.043-0.035c-0.067-0.066-0.108-0.157-0.108-0.259 0-0.005 0-0.009 0-0.014l-0 0.001c0-0.129 0.067-0.245 0.2-0.346l0.052-0.037 0.528 0.624z"></path>
</symbol>
<symbol id="icon-linkedin" viewBox="0 0 32 32">
<path d="M31.984 32v-0.016h0.016v-11.728c0-5.744-1.248-10.16-7.952-10.16-3.232 0-5.392 1.76-6.272 3.44h-0.096v-2.912h-6.368v21.36h6.624v-10.576c0-2.784 0.528-5.472 3.984-5.472 3.392 0 3.44 3.184 3.44 5.648v10.416h6.624zM0.528 10.624h6.624v21.36h-6.624v-21.36zM3.84 0c-2.128 0-3.84 1.712-3.84 3.84 0 2.112 1.712 3.872 3.84 3.872 2.112 0 3.84-1.76 3.84-3.872 0-2.121-1.719-3.84-3.84-3.84v0z"></path>
</symbol>
<symbol id="icon-facebook" viewBox="0 0 32 32">
<path d="M21.328 5.312h2.912v-5.088c-0.496-0.080-2.24-0.224-4.256-0.224-4.208 0-7.088 2.64-7.088 7.504v4.496h-4.656v5.68h4.656v14.32h5.696v-14.32h4.448l0.72-5.68h-5.168v-3.92c0-1.648 0.432-2.768 2.736-2.768z"></path>
</symbol>
<symbol id="icon-twitter" viewBox="0 0 32 32">
<path d="M32 6.064c-1.2 0.528-2.464 0.88-3.792 1.040 1.36-0.816 2.4-2.080 2.896-3.632-1.28 0.768-2.672 1.296-4.16 1.6-1.206-1.277-2.91-2.074-4.799-2.080h-0.001c-3.623 0-6.56 2.937-6.56 6.56v0c0 0.528 0.048 1.024 0.16 1.504-5.468-0.276-10.277-2.879-13.493-6.83l-0.027-0.034c-0.576 0.976-0.896 2.096-0.896 3.312 0 2.272 1.168 4.288 2.912 5.456-1.056-0.016-2.096-0.336-2.96-0.816v0.080c0.003 3.162 2.232 5.804 5.205 6.44l0.043 0.008c-0.528 0.144-1.12 0.208-1.712 0.208-0.432 0-0.848-0.016-1.248-0.112 0.87 2.626 3.27 4.501 6.119 4.576l0.009 0c-2.215 1.745-5.046 2.798-8.122 2.798-0.555 0-1.101-0.034-1.638-0.101l0.064 0.006c2.896 1.872 6.336 2.944 10.064 2.944 12.064 0 18.656-10 18.656-18.672 0-0.288 0-0.56-0.016-0.848 1.296-0.928 2.4-2.080 3.296-3.408z"></path>
</symbol>
<symbol id="icon-instagram" viewBox="0 0 32 32">
<path d="M31.968 9.408c-0.080-1.712-0.352-2.88-0.752-3.888-0.4-1.072-1.024-2.032-1.856-2.848-0.8-0.8-1.76-1.44-2.832-1.84-1.008-0.384-2.176-0.672-3.872-0.736-1.712-0.080-2.256-0.096-6.608-0.096-4.336 0-4.88 0.016-6.592 0.080-1.696 0.080-2.864 0.352-3.888 0.752-1.072 0.4-2.032 1.024-2.832 1.84-0.816 0.816-1.44 1.776-1.84 2.832-0.4 1.024-0.672 2.192-0.752 3.888-0.080 1.712-0.096 2.256-0.096 6.608 0 4.336 0.016 4.88 0.096 6.592 0.080 1.696 0.352 2.864 0.736 3.888 0.416 1.072 1.040 2.032 1.856 2.832 0.8 0.816 1.776 1.44 2.832 1.84 1.024 0.4 2.176 0.672 3.888 0.752 1.696 0.064 2.24 0.080 6.592 0.080 4.336 0 4.88-0.016 6.592-0.080 1.696-0.080 2.864-0.352 3.888-0.752 2.151-0.851 3.821-2.521 4.653-4.617l0.019-0.055c0.4-1.024 0.672-2.192 0.752-3.888 0.064-1.712 0.096-2.256 0.096-6.592 0-4.352-0.016-4.896-0.080-6.592zM29.072 22.464c-0.064 1.568-0.32 2.4-0.544 2.976-0.544 1.392-1.648 2.496-3.040 3.040-0.56 0.208-1.408 0.48-2.96 0.544-1.696 0.080-2.208 0.096-6.464 0.096-4.272 0-4.784-0.016-6.464-0.096-1.568-0.064-2.416-0.336-2.976-0.544-0.688-0.256-1.328-0.672-1.84-1.2-0.509-0.507-0.912-1.121-1.172-1.805l-0.012-0.035c-0.224-0.56-0.496-1.408-0.56-2.976-0.080-1.68-0.096-2.192-0.096-6.464 0-4.256 0.016-4.768 0.096-6.464 0.064-1.552 0.336-2.4 0.56-2.96 0.256-0.688 0.656-1.328 1.2-1.84 0.512-0.528 1.136-0.944 1.824-1.2 0.576-0.208 1.424-0.48 2.976-0.544 1.68-0.080 2.192-0.096 6.464-0.096s4.784 0.016 6.464 0.096c1.568 0.064 2.4 0.336 2.976 0.544 0.688 0.256 1.312 0.672 1.824 1.2 0.544 0.512 0.944 1.152 1.2 1.84 0.224 0.56 0.48 1.408 0.544 2.96 0.080 1.696 0.096 2.208 0.096 6.464 0 4.272-0.016 4.784-0.096 6.464z"></path>
<path d="M16.048 7.776c-4.528 0-8.224 3.68-8.224 8.224 0 4.528 3.696 8.208 8.224 8.208 4.544 0 8.224-3.68 8.224-8.208 0-4.544-3.68-8.224-8.224-8.224zM16.048 21.328c-2.944 0-5.328-2.384-5.328-5.328s2.384-5.344 5.328-5.344 5.328 2.4 5.328 5.344c0 2.944-2.384 5.328-5.328 5.328zM26.512 7.456c0 1.056-0.848 1.92-1.92 1.92-1.056 0-1.92-0.864-1.92-1.92 0-1.072 0.864-1.92 1.92-1.92 1.072 0 1.92 0.848 1.92 1.92z"></path>
</symbol>
<symbol id="icon-astronaut" viewBox="0 0 32 32">
<path d="M31.973 4.521c-0.064-0.192-0.229-0.334-0.43-0.361l-1.911-0.279-0.855-1.733c-0.178-0.361-0.777-0.361-0.955 0l-0.855 1.733-1.911 0.279c-0.201 0.027-0.37 0.169-0.434 0.361-0.059 0.192-0.009 0.407 0.137 0.549l1.381 1.349-0.325 1.902c-0.032 0.201 0.050 0.402 0.21 0.521 0.169 0.119 0.384 0.137 0.562 0.041l1.71-0.901 1.71 0.901c0.078 0.041 0.165 0.059 0.247 0.059 0.002 0 0.003 0 0.005 0 0.292 0 0.529-0.237 0.529-0.529 0-0.033-0.003-0.065-0.009-0.096l0 0.003-0.325-1.902 1.381-1.349c0.146-0.142 0.197-0.357 0.137-0.549zM29.509 5.847c-0.123 0.123-0.183 0.302-0.151 0.475l0.187 1.111-1.001-0.526c-0.078-0.041-0.16-0.059-0.247-0.059s-0.169 0.018-0.247 0.059l-1.001 0.526 0.192-1.111c0.027-0.174-0.027-0.352-0.155-0.475l-0.809-0.786 1.12-0.165c0.174-0.023 0.325-0.133 0.402-0.293l0.498-1.010 0.498 1.010c0.078 0.16 0.229 0.27 0.402 0.293l1.12 0.165-0.809 0.786z"></path>
<path d="M25.065 20.521h1.065v1.065h-1.065v-1.065zM25.065 22.651h1.065v1.070h-1.065v-1.070zM26.13 21.586h1.070v1.065h-1.070v-1.065zM24 21.586h1.065v1.065h-1.065v-1.065zM21.33 26.386h1.070v1.065h-1.070v-1.065zM21.33 28.521h1.070v1.065h-1.070v-1.065zM22.4 27.451h1.065v1.070h-1.065v-1.070zM20.265 27.451h1.065v1.070h-1.065v-1.070zM14.93 24.251h1.070v1.070h-1.070v-1.070zM14.93 26.386h1.070v1.065h-1.070v-1.065zM16 25.321h1.065v1.065h-1.065v-1.065zM13.865 25.321h1.065v1.065h-1.065v-1.065zM4.795 6.121h1.070v1.065h-1.070v-1.065zM4.795 8.251h1.070v1.070h-1.070v-1.070zM5.865 7.186h1.065v1.065h-1.065v-1.065zM3.73 7.186h1.065v1.065h-1.065v-1.065z"></path>
<path d="M24.713 14.158c-0.288-0.389-0.709-0.64-1.189-0.704-0.48-0.069-0.955 0.055-1.339 0.352l-1.253 0.96-1.897 1.417-1.358-0.544c2.418-1.083 4.114-3.506 4.114-6.318 0-3.822-3.122-6.935-6.962-6.935s-6.962 3.113-6.962 6.935c0 1.385 0.416 2.674 1.12 3.758l-2.77-0.023c-0.005 0-0.014 0.005-0.023 0.005-0.050 0-0.105 0.014-0.155 0.032-0.009 0.005-0.023 0.005-0.037 0.014-0.005 0-0.014 0-0.018 0.005l-3.237 1.595-1.893 0.91c-0.018 0.009-0.041 0.023-0.064 0.037-0.482 0.324-0.794 0.867-0.794 1.484 0 0.296 0.072 0.575 0.2 0.821l-0.005-0.010c0.224 0.43 0.599 0.745 1.056 0.891 0.178 0.055 0.361 0.082 0.539 0.082 0.293 0 0.581-0.073 0.841-0.21l1.39-0.741 2.263-1.17 1.358-0.005-6.784 6.747c-0.315 0.315-0.489 0.731-0.489 1.179 0 0.443 0.174 0.864 0.489 1.179 0.303 0.3 0.719 0.485 1.179 0.485s0.877-0.185 1.18-0.485l-0 0 1.317-1.312 1.742-1.298 0.901 0.896-3.104 3.090c-0.315 0.315-0.489 0.731-0.489 1.179 0 0.443 0.174 0.859 0.489 1.175 0.325 0.325 0.754 0.489 1.179 0.489 0.43 0 0.855-0.165 1.179-0.489l1.339-1.33 2.144-2.135 1.010-1.001-0.005-0.005c0.009-0.005 0.018-0.009 0.023-0.014l5.166-5.659 3.47 0.494c0.027 0.005 0.050 0.005 0.078 0.005 0.064 0 0.128-0.014 0.187-0.037 0.018-0.009 0.032-0.014 0.050-0.023l0.055-0.027 3.214-2.135c0.014-0.009 0.018-0.018 0.032-0.027 0.009-0.014 0.027-0.014 0.037-0.027l1.271-1.189c0.348-0.326 0.565-0.789 0.565-1.302 0-0.4-0.132-0.769-0.354-1.066l0.003 0.005zM2.13 17.769c-0.099 0.053-0.216 0.084-0.34 0.084-0.279 0-0.522-0.156-0.645-0.386l-0.002-0.004c-0.16-0.315-0.069-0.695 0.215-0.905l1.312-0.631 0.315 0.923 0.137 0.389-0.992 0.53zM5.627 15.941l-1.55 0.8-0.256-0.745-0.183-0.539 2.025-1.001-0.037 1.486zM20.727 9.321c0 0.919-0.219 1.783-0.599 2.56l-4.183-1.902c-0.046-0.571-0.343-1.074-0.791-1.385l1.467-4.864c2.377 0.759 4.105 2.976 4.105 5.591zM8.937 9.321c0-3.237 2.642-5.87 5.893-5.87 0.251 0 0.503 0.023 0.745 0.055l-1.431 4.754c-0.018 0-0.037-0.009-0.059-0.009-1.033 0-1.87 0.841-1.87 1.87s0.837 1.865 1.87 1.865c0.695 0 1.298-0.384 1.618-0.946l3.863 1.755c-1.074 1.449-2.793 2.391-4.736 2.391-3.25 0-5.893-2.633-5.893-5.865zM14.894 10.121c0 0.439-0.361 0.8-0.809 0.8-0.443 0-0.805-0.361-0.805-0.8 0-0.443 0.361-0.8 0.805-0.8 0.448 0 0.809 0.357 0.809 0.8zM2.464 25.143c-0.238 0.233-0.622 0.233-0.855 0-0.11-0.106-0.178-0.254-0.178-0.419 0-0.001 0-0.001 0-0.002v0c0-0.16 0.064-0.311 0.178-0.421l0.96-0.96 0.85 0.846-0.955 0.955zM5.678 28.878c-0.238 0.233-0.622 0.233-0.855 0-0.114-0.114-0.178-0.265-0.178-0.421 0-0.16 0.064-0.311 0.178-0.425l0.96-0.955 0.855 0.846-0.96 0.955zM9.157 25.408l-1.765 1.76-0.402-0.398-0.448-0.448 1.76-1.755h0.005c0.037-0.041 0.064-0.091 0.087-0.137 0.009-0.014 0.023-0.027 0.027-0.041 0.018-0.041 0.018-0.082 0.027-0.128 0-0.023 0.014-0.046 0.014-0.073 0-0.037-0.014-0.069-0.023-0.105-0.005-0.032-0.005-0.064-0.018-0.096-0.018-0.050-0.055-0.091-0.091-0.137-0.009-0.009-0.014-0.027-0.023-0.037-0.005 0-0.005 0-0.005-0.005l-1.605-1.6c-0.018-0.014-0.041-0.023-0.059-0.037-0.027-0.023-0.055-0.041-0.087-0.059-0.032-0.014-0.059-0.023-0.091-0.032-0.037-0.009-0.069-0.014-0.105-0.018-0.032 0-0.064 0-0.096 0.005-0.037 0.005-0.069 0.009-0.101 0.018-0.037 0.014-0.064 0.027-0.096 0.046-0.018 0.014-0.041 0.018-0.059 0.032l-1.774 1.321-0.901-0.896 2.395-2.386 4.361 4.288-0.928 0.919zM15.977 18.391c-0.014 0-0.032 0.005-0.046 0.005-0.037-0.005-0.078 0-0.114 0.005-0.032 0.005-0.059 0.014-0.087 0.023-0.037 0.014-0.069 0.027-0.101 0.046-0.027 0.018-0.055 0.037-0.082 0.064-0.014 0.009-0.027 0.014-0.037 0.027l-4.699 5.147-4.329-4.256 2.834-2.821c0.097-0.096 0.157-0.23 0.157-0.377 0-0.294-0.238-0.533-0.533-0.533-0.001 0-0.002 0-0.004 0l-2.222 0.014 0.027-1.609 3.104 0.027c1.266 1.294 3.031 2.098 4.983 2.098 0.439 0 0.864-0.046 1.28-0.119 0.041 0.032 0.078 0.064 0.128 0.082l2.409 0.96 0.155 0.759 0.178 0.887-3.003-0.43zM20.018 18.569l-0.315-1.559 1.449-1.079 0.379 0.503 0.567 0.754-2.080 1.381zM23.771 15.739l-0.837 0.786-0.933-1.239 0.832-0.635c0.155-0.119 0.352-0.169 0.544-0.142 0.352 0.049 0.619 0.347 0.619 0.708 0 0.206-0.087 0.391-0.226 0.521l-0 0z"></path>
<path d="M13.6 18.542l-2.144-2.135c-0.206-0.206-0.544-0.206-0.75 0l-2.144 2.135c-0.101 0.101-0.155 0.238-0.155 0.379s0.055 0.279 0.155 0.375l2.144 2.135c0.101 0.105 0.238 0.155 0.375 0.155s0.274-0.050 0.375-0.155l2.144-2.135c0.101-0.096 0.155-0.233 0.155-0.375s-0.055-0.279-0.155-0.379zM11.081 20.302l-1.385-1.381 1.385-1.381 1.385 1.381-1.385 1.381zM17.161 5.070l-0.256 1.033c0.069 0.018 1.737 0.453 1.737 2.149h1.065c0-2.016-1.664-2.962-2.546-3.182z"></path>
<path d="M18.642 9.321h1.065v1.065h-1.065v-1.065z"></path>
</symbol>
<symbol id="icon-computer" viewBox="0 0 32 32">
<path d="M1.595 28.199h25.586c0.887 0 1.6-0.713 1.6-1.6v-2.13c0-0.882-0.713-1.6-1.6-1.6h-0.53v-13.294l3.026-2.866c0.704 0.347 1.554 0.137 2.016-0.498 0.457-0.635 0.393-1.509-0.155-2.071-0.293-0.298-0.7-0.483-1.15-0.483-0.343 0-0.661 0.107-0.922 0.29l0.005-0.003c-0.64 0.448-0.873 1.294-0.539 2.002l-2.281 2.162v-1.23c0-0.882-0.718-1.6-1.6-1.6h-21.321c-0.882 0-1.6 0.718-1.6 1.6v15.991h-0.535c-0.882 0-1.595 0.718-1.595 1.6v2.13c0 0.887 0.713 1.6 1.595 1.6zM30.382 4.748c0.293 0 0.535 0.238 0.535 0.53 0 0.297-0.242 0.535-0.535 0.535s-0.535-0.238-0.535-0.535c0-0.293 0.242-0.53 0.535-0.53zM3.195 6.878c0-0.293 0.238-0.535 0.535-0.535h21.321c0.293 0 0.535 0.242 0.535 0.535v2.24l-1.070 1.010v-2.185c0-0.293-0.238-0.53-0.53-0.53h-19.191c-0.293 0-0.535 0.238-0.535 0.53v13.326c0 0.297 0.242 0.535 0.535 0.535h19.191c0.293 0 0.53-0.238 0.53-0.535v-9.673l1.070-1.010v12.283h-22.391v-15.991zM7.995 13.808c-0.003 0-0.006-0-0.009-0-0.884 0-1.6 0.716-1.6 1.6s0.716 1.6 1.6 1.6c0.434 0 0.827-0.173 1.115-0.453l-0 0 1.851 0.928c0.215 0.11 0.475 0.059 0.635-0.119l3.941-4.434 3.872 2.903c0.206 0.155 0.498 0.137 0.686-0.041l3.365-3.186v8.133h-18.121v-12.261h18.121v2.661l-3.771 3.57-3.904-2.926c-0.219-0.169-0.535-0.137-0.718 0.073l-3.995 4.489-1.49-0.745c0.009-0.064 0.018-0.128 0.018-0.192 0-0.882-0.713-1.6-1.595-1.6zM8.526 15.408c0 0.293-0.238 0.53-0.53 0.53-0.001 0-0.001 0-0.002 0-0.294 0-0.533-0.238-0.533-0.533s0.238-0.533 0.533-0.533c0.294 0 0.533 0.238 0.533 0.533 0 0.001 0 0.002 0 0.002v-0zM11.726 23.934h5.33v0.535c0 0.293-0.238 0.535-0.535 0.535h-4.265c-0.293 0-0.53-0.242-0.53-0.535v-0.535zM1.065 24.469c0-0.293 0.238-0.535 0.53-0.535h9.065v0.535c0 0.882 0.713 1.6 1.595 1.6h4.265c0.882 0 1.6-0.718 1.6-1.6v-0.535h9.061c0.297 0 0.535 0.242 0.535 0.535v2.13c0 0.297-0.238 0.535-0.535 0.535h-25.586c-0.293 0-0.53-0.238-0.53-0.535v-2.13z"></path>
</symbol>
<symbol id="icon-clock" viewBox="0 0 32 32">
<path d="M31.296 15.301c-0.005-8.453-6.857-15.305-15.31-15.301-8.453 0-15.301 6.853-15.301 15.305 0 6.661 4.306 12.553 10.647 14.578 0.064 0.018 0.123 0.027 0.187 0.027 0.123 0 0.242-0.032 0.343-0.096 0.137-0.078 0.238-0.206 0.283-0.357l3.867-12.247c1.056-0.005 1.906-0.869 1.902-1.925-0.007-1.052-0.861-1.902-1.914-1.902-0.004 0-0.007 0-0.011 0h0.001c-0.283 0-0.562 0.064-0.818 0.192l-5.106-5.106c-0.251-0.247-0.658-0.238-0.901 0.014-0.238 0.247-0.238 0.64 0 0.887l5.102 5.106c-0.121 0.242-0.192 0.527-0.192 0.828 0 0.602 0.283 1.138 0.723 1.482l0.004 0.003-3.68 11.671c-7.278-2.679-11.003-10.752-8.325-18.030 2.683-7.278 10.757-11.008 18.034-8.325 7.278 2.679 11.003 10.752 8.32 18.030-1.343 3.582-4.001 6.407-7.373 7.937l-0.088 0.036-0.398-1.874c-0.073-0.343-0.411-0.562-0.754-0.489-0.11 0.023-0.21 0.073-0.293 0.146l-3.84 3.429c-0.261 0.233-0.283 0.635-0.050 0.901 0.078 0.082 0.174 0.146 0.283 0.183l4.896 1.563c0.338 0.105 0.695-0.078 0.805-0.411 0.032-0.11 0.041-0.219 0.018-0.329l-0.393-1.838c5.664-2.391 9.344-7.945 9.33-14.089zM15.991 14.661c0.352 0 0.635 0.288 0.635 0.64s-0.283 0.635-0.635 0.635c-0.352 0-0.64-0.283-0.64-0.635s0.288-0.64 0.64-0.64zM18.089 29.527l2.185-1.952 0.603 2.843-2.789-0.891z"></path>
<path d="M15.351 3.182v1.275c0 0.352 0.288 0.64 0.64 0.64s0.635-0.288 0.635-0.64v-1.275c0-0.352-0.283-0.635-0.635-0.635s-0.64 0.283-0.64 0.635zM3.872 14.661c-0.352 0-0.635 0.288-0.635 0.64s0.283 0.635 0.635 0.635h1.275c0.352 0 0.64-0.283 0.64-0.635s-0.288-0.64-0.64-0.64h-1.275zM28.105 15.936c0.352 0 0.64-0.283 0.64-0.635s-0.288-0.64-0.64-0.64h-1.275c-0.352 0-0.635 0.288-0.635 0.64s0.283 0.635 0.635 0.635h1.275z"></path>
</symbol>
<symbol id="icon-antena" viewBox="0 0 30 32">
<path d="M29.701 22.094l-8.443-8.503 0.937-4.617c0.242 0.096 0.498 0.146 0.759 0.146h0.005c1.193 0.014 2.171-0.942 2.185-2.135 0.014-1.189-0.942-2.167-2.135-2.181-0.008-0-0.017-0-0.026-0-1.182 0-2.141 0.951-2.155 2.129v0.001c-0.005 0.256 0.037 0.512 0.123 0.75l-4.96 0.608-8.091-8.137c-0.095-0.096-0.227-0.155-0.373-0.155-0.001 0-0.001 0-0.002 0h0c-0.142 0-0.274 0.055-0.375 0.151l-1.513 1.504c-0.206 0.21-0.206 0.549 0 0.754l0.814 0.827c-3.154 5.797-2.13 12.978 2.519 17.664 0.046 0.041 0.091 0.073 0.146 0.096-0.032 0.183-0.050 0.366-0.050 0.549v6.185h-6.4c-1.472 0.004-2.664 1.197-2.665 2.67v1.065c0 0.293 0.238 0.535 0.53 0.535h24.535c0.293 0 0.535-0.242 0.535-0.535v-1.065c-0.005-1.472-1.197-2.665-2.669-2.67h-6.4v-2.743c1.001 0.21 2.025 0.32 3.049 0.32 2.459 0 4.878-0.613 7.040-1.783l0.818 0.823c0.101 0.101 0.233 0.16 0.375 0.16s0.274-0.055 0.375-0.155l1.513-1.504c0.206-0.206 0.206-0.544 0-0.754zM22.209 6.231c0.416-0.416 1.093-0.411 1.509 0.005s0.411 1.093-0.005 1.509c-0.201 0.197-0.471 0.311-0.754 0.311-0.589-0.005-1.065-0.484-1.065-1.074 0 0 0-0 0-0v0c0.005-0.279 0.114-0.553 0.315-0.75zM20.952 9.737l-0.599 2.944-1.175-1.184 1.774-1.76zM20.348 8.832l-1.92 1.911-1.486-1.495 3.406-0.416zM22.931 28.8c0.882 0 1.6 0.713 1.6 1.6v0.53h-23.465v-0.53c0-0.887 0.718-1.6 1.6-1.6h20.265zM15.466 26.665v1.065h-5.335v-1.065h5.335zM10.131 25.6v-4.055c0-1.294 1.198-2.345 2.67-2.345 1.467 0 2.665 1.051 2.665 2.345v4.055h-5.335zM16.531 23.904v-2.359c0-1.883-1.673-3.415-3.73-3.415-0.017-0-0.037-0-0.058-0-1.353 0-2.542 0.707-3.215 1.772l-0.009 0.016c-4.059-4.274-4.974-10.647-2.281-15.886l18.601 18.706c-1.823 0.948-3.98 1.504-6.268 1.504-1.077 0-2.126-0.123-3.133-0.357l0.093 0.018zM27.823 23.218l-0.754-0.754-20.306-20.425 0.759-0.754 7.931 7.982c0.005 0 0.009 0.005 0.009 0.009l13.115 13.189-0.754 0.754z"></path>
<path d="M12.805 20.265h-0.009c-0.882 0-1.6 0.713-1.6 1.595 0 0.887 0.713 1.605 1.595 1.605h0.005c0.001 0 0.003 0 0.005 0 0.884 0 1.6-0.716 1.6-1.6 0 0 0 0 0 0v0c0-0.882-0.713-1.6-1.595-1.6zM13.176 22.245c-0.101 0.096-0.238 0.155-0.379 0.155-0.293-0.005-0.53-0.242-0.53-0.539 0.005-0.142 0.059-0.274 0.16-0.375 0.101-0.096 0.233-0.155 0.37-0.155 0.297 0.005 0.535 0.242 0.535 0.535-0.005 0.142-0.059 0.279-0.16 0.379h0.005z"></path>
</symbol>
<symbol id="icon-smartphone" viewBox="0 0 32 32">
<path d="M23 0h-14c-1.66 0-3 1.34-3 3v26c0 1.64 1.34 3 3 3h14c1.64 0 3-1.36 3-3v-26c0-1.66-1.36-3-3-3zM9 2h14c0.54 0 1 0.44 1 1v21h-16v-21c0-0.56 0.44-1 1-1zM23 30h-14c-0.56 0-1-0.46-1-1v-3h16v3c0 0.54-0.46 1-1 1z"></path>
<path d="M10.7 27.46c0.38 0.38 0.38 0.96 0 1.32-0.4 0.38-1.020 0.38-1.42 0-0.176-0.166-0.285-0.4-0.285-0.66s0.11-0.494 0.285-0.66l0-0c0.4-0.36 1.020-0.36 1.42 0z"></path>
</symbol>
<symbol id="icon-gmail" viewBox="0 0 32 32">
<path d="M29 4h-26c-1.66 0-3 1.34-3 3v18c0 1.64 1.34 3 3 3h26c1.64 0 3-1.36 3-3v-18c0-1.66-1.36-3-3-3zM29 6c0.12 0 0.26 0.020 0.38 0.060l-13.38 11.6-13.4-11.6c0.12-0.040 0.26-0.060 0.4-0.060h26zM29 26h-26c-0.56 0-1-0.46-1-1v-16.82l13.34 11.56c0.18 0.16 0.42 0.26 0.66 0.26 0.22 0 0.46-0.1 0.64-0.26l13.36-11.56v16.82c0 0.54-0.46 1-1 1z"></path>
</symbol>
<symbol id="close-icon" viewBox="0 0 32 32">
<path d="M26.667 7.289l-1.973-1.956-7.804 7.804-7.822-7.804-1.956 1.956 7.804 7.822-7.804 7.804 1.956 1.973 7.822-7.822 7.804 7.822 1.973-1.973-7.822-7.804 7.822-7.822z"></path>
</symbol>
<symbol id="icon-email" viewBox="0 0 32 32">
<path d="M26.667 5.333h-21.333c-1.476 0-2.667 1.191-2.667 2.667v16c0 1.458 1.191 2.667 2.667 2.667h21.333c1.458 0 2.667-1.209 2.667-2.667v-16c0-1.476-1.209-2.667-2.667-2.667zM26.133 10.987l-9.44 5.902c-0.427 0.267-0.978 0.267-1.404 0l-9.422-5.902c-0.338-0.213-0.533-0.569-0.533-0.96 0-0.889 0.96-1.422 1.724-0.96l8.942 5.6 8.924-5.6c0.764-0.462 1.742 0.071 1.742 0.96 0 0.391-0.213 0.747-0.533 0.96z"></path>
</symbol>
<symbol id="icon-phone" viewBox="0 0 32 32">
<path d="M24.871 19.769l-3.271-0.373c-0.782-0.089-1.547 0.178-2.098 0.729l-2.382 2.364c-3.627-1.849-6.613-4.818-8.462-8.48l2.364-2.382c0.569-0.551 0.836-1.316 0.747-2.098l-0.373-3.253c-0.16-1.298-1.262-2.276-2.56-2.276h-2.24c-1.44 0-2.649 1.209-2.56 2.667 0.676 10.987 9.458 19.769 20.444 20.444 1.44 0.089 2.649-1.12 2.649-2.578v-2.222c0.018-1.298-0.96-2.4-2.258-2.542z"></path>
</symbol>
<symbol id="icon-name" viewBox="0 0 32 32">
<path d="M16 16c2.933 0 5.333-2.4 5.333-5.333 0-2.951-2.4-5.333-5.333-5.333-2.951 0-5.333 2.382-5.333 5.333 0 2.933 2.382 5.333 5.333 5.333zM16 18.667c-3.573 0-10.667 1.778-10.667 5.333v1.333c0 0.729 0.587 1.333 1.333 1.333h18.667c0.729 0 1.333-0.604 1.333-1.333v-1.333c0-3.556-7.111-5.333-10.667-5.333z"></path>
</symbol>
<symbol id="icon-send" viewBox="0 0 32 32">
<path d="M32 0l-32 18 10.213 3.787 15.787-14.787-12 16.173v8.827l5.733-6.693 7.267 2.693 5-28z"></path>
</symbol>
</defs>
</svg>
